Coordinates
version=1
nRows=12
nColumns=34
inDegrees=yes

Units are S.I. units (second, meters, Newtons, ...)
If the header above contains a line with 'inDegrees', this indicates whether rotational values are in degrees (yes) or radians (no).

endheader
time	pelvis_tilt	pelvis_list	pelvis_rotation	pelvis_tx	pelvis_ty	pelvis_tz	hip_flexion_r	hip_adduction_r	hip_rotation_r	knee_angle_r	ankle_angle_r	subtalar_angle_r	mtp_angle_r	hip_flexion_l	hip_adduction_l	hip_rotation_l	knee_angle_l	ankle_angle_l	subtalar_angle_l	mtp_angle_l	lumbar_extension	lumbar_bending	lumbar_rotation	arm_flex_r	arm_add_r	arm_rot_r	elbow_flex_r	pro_sup_r	arm_flex_l	arm_add_l	arm_rot_l	elbow_flex_l	pro_sup_l
      0.00000000	      5.17996863	     -1.77426759	      4.68834218	      0.93527661	      0.93736710	     -0.10162653	     -6.23139350	     -1.17980310	     -9.81082308	      1.39793992	      3.31314907	     -7.27827402	      0.00000000	     -5.86529444	     -4.65183613	     -7.34280132	      1.00344018	      8.65989645	     -4.18204356	      0.00000000	     -8.06836758	      3.66307613	     -3.27607589	      7.06556882	     -7.36388987	     18.34880080	     23.06207081	     78.68384711	      6.65239311	     -6.42807140	     14.46362119	     26.61038167	     73.12944767
      0.01666670	      4.77503241	     -0.92820230	      4.32189920	      0.93724689	      0.93620274	     -0.10131351	     -6.08988470	     -1.64463825	     -9.73560773	      0.68266367	      4.82201958	     -5.68390298	      0.00000000	     -6.05471878	     -3.39421363	     -9.57197978	      0.00000000	      8.70003291	     -3.62303660	      0.00000000	     -6.84246552	      2.72443675	     -3.21441175	      6.67667112	     -6.99561752	     17.14344523	     23.13359404	     78.45119057	      6.63892943	     -6.27525810	     13.52350515	     26.06637210	     72.97698144
      0.03333330	      3.63003895	     -0.38193534	      3.92275351	      0.93849819	      0.93431158	     -0.10031145	     -5.10762675	     -2.09856060	    -11.97810423	      0.00000000	      5.87168418	     -3.26178106	      0.00000000	     -4.96142598	     -2.69134213	    -12.09105665	      0.11239452	     10.14532554	     -0.42836574	      0.00000000	     -5.25515658	      1.98535677	     -2.41938157	      5.76665502	     -6.32989276	     13.34846127	     23.38425941	     77.90649834	      6.53093365	     -5.84783361	     11.34407636	     25.39884467	     72.51216928
      0.05000000	      4.24329787	      0.05412223	      3.83279177	      0.93879029	      0.93533984	     -0.09964119	     -5.73503078	     -2.59311673	    -12.73917822	      0.00000000	      6.59094507	     -1.64258744	      0.00000000	     -5.77852341	     -2.24933276	    -13.26414872	      0.00000000	     10.71129734	      1.15356539	      0.00000000	     -6.27080437	      1.48058568	     -1.86000263	      5.39493842	     -5.85768518	      9.73312570	     24.34660270	     77.73270669	      6.72158678	     -5.92047621	     10.14409286	     25.65198963	     72.29184779
      0.06666670	      4.19846046	      0.11631624	      3.89433870	      0.93743492	      0.93524353	     -0.09999859	     -5.69609546	     -2.64386678	    -12.77620155	      0.00000000	      6.66211011	     -1.66906324	      0.00000000	     -5.72044329	     -2.17930430	    -13.31414348	      0.00000000	     10.67171506	      1.17426408	      0.00000000	     -6.28798118	      1.54289717	     -1.77469870	      5.44070275	     -5.80981235	      9.72551863	     24.38344571	     77.73829168	      6.70258706	     -5.95327064	     10.13905207	     25.63792996	     72.29143036
      0.08333330	      4.18414571	      0.12761453	      3.90185885	      0.93832865	      0.93433400	     -0.09975190	     -5.70895162	     -2.63694467	    -12.77752235	      0.00000000	      6.67109542	     -1.66882879	      0.00000000	     -5.71195106	     -2.16487952	    -13.31860125	      0.00000000	     10.66263871	      1.18287242	      0.00000000	     -6.28802180	      1.54432797	     -1.76329148	      5.44925053	     -5.80919290	      9.72492446	     24.38943747	     77.73886006	      6.70208401	     -5.95699375	     10.13847258	     25.63613138	     72.29125509
      0.10000000	      4.16201144	      0.17758828	      4.04536432	      0.93665907	      0.93273679	     -0.09995959	     -5.72870800	     -2.69696089	    -12.77365256	      0.00000000	      6.74931841	     -1.66379654	      0.00000000	     -5.62251534	     -2.12054452	    -13.35420067	      0.00000000	     10.59778202	      1.25219858	      0.00000000	     -6.27288654	      1.57508854	     -1.64517703	      5.55950785	     -5.79225408	      9.73234741	     24.45479789	     77.74337844	      6.71663998	     -5.99139952	     10.13172596	     25.62740585	     72.28919582
      0.11666670	      4.04466566	      0.25996740	      4.04931746	      0.93462131	      0.93374081	     -0.09960882	     -5.55748144	     -2.79001596	    -12.77658654	      0.00000000	      6.98053584	     -1.62446302	      0.00000000	     -5.39260996	     -2.02204571	    -13.35661219	      0.00000000	     10.26303187	      1.59137168	      0.00000000	     -6.37756666	      1.48366252	     -1.53434000	      5.83841849	     -5.81255615	      9.77898478	     24.64939904	     77.76120082	      7.06227451	     -5.99229562	     10.12432076	     25.66987840	     72.28410622
      0.13333330	      4.03611911	      0.28879261	      4.16832559	      0.93464798	      0.93424381	     -0.09990028	     -5.56497908	     -2.80967515	    -12.75031946	      0.00000000	      7.00435865	     -1.58297216	      0.00000000	     -5.31342696	     -2.00334353	    -13.41915434	      0.00000000	     10.16879468	      1.66050066	      0.00000000	     -6.44405714	      1.45674845	     -1.47826253	      5.83517989	     -5.81188520	      9.80850606	     24.68943287	     77.76931964	      7.04510732	     -5.99802065	     10.12817638	     25.63370498	     72.28237063
      0.15000000	      4.21958716	      0.37460706	      3.99744442	      0.93497063	      0.93409166	     -0.09954868	     -5.73334670	     -2.90645122	    -13.13818109	      0.00000000	      7.39132755	     -0.47705712	      0.00000000	     -5.49310507	     -1.92728222	    -14.69029386	      0.00000000	      9.92136513	      3.46661155	      0.00000000	     -6.86097022	      1.29198864	     -0.81905953	      5.35809928	     -6.37451629	     11.11740800	     26.23875100	     78.13203898	      7.72962721	     -5.78276638	     10.45161355	     24.73332614	     72.24720177
      0.16666670	      4.21753099	      0.39164865	      4.06403044	      0.93474562	      0.93398972	     -0.09934293	     -5.74098007	     -2.90412972	    -13.14859379	      0.00000000	      7.37700237	     -0.47396201	      0.00000000	     -5.45280719	     -1.92316701	    -14.70723410	      0.00000000	      9.88090340	      3.47323346	      0.00000000	     -6.89312726	      1.28879156	     -0.76819032	      5.40189086	     -6.36647190	     11.12776175	     26.25603860	     78.13474394	      7.69494589	     -5.81018454	     10.45595893	     24.71131803	     72.24676426
      0.18333330	      4.23177235	      0.45723296	      4.06153079	      0.93502755	      0.93670034	     -0.09952818	     -5.75723808	     -2.97028806	    -13.37286780	      0.00000000	      7.06135764	     -0.39634833	      0.00000000	     -5.44162705	     -1.87599509	    -14.90330045	      0.00000000	      9.20349875	      3.60968161	      0.00000000	     -7.06723169	      1.21283678	     -0.74965119	      5.54907715	     -6.38818662	     11.27218451	     26.38078325	     78.17685705	      7.73050981	     -5.87692184	     10.53935134	     24.59877156	     72.25070907
